<svg
  width="24"
  height="24"
  viewBox="0 0 24 24"
  fill="none"
  xmlns="http://www.w3.org/2000/svg"
>
  <path
    opacity="0.4"
    d="M12 2C6.47715 2 2 6.47715 2 12C2 17.5228 6.47715 22 12 22C17.5228 22 22 17.5228 22 12C22 6.47715 17.5228 2 12 2Z"
    class="fill-current"
  />
  <path
    d="M12.0001 8.99C12.1901 8.99 12.3801 9.06 12.5301 9.21L16.0601 12.74C16.3501 13.03 16.3501 13.51 16.0601 13.8C15.7701 14.09 15.2901 14.09 15.0001 13.8L12.0001 10.8L9.00009 13.8C8.71009 14.09 8.23009 14.09 7.94009 13.8C7.65009 13.51 7.65009 13.03 7.94009 12.74L11.4701 9.21C11.6201 9.06 11.8101 8.99 12.0001 8.99Z"
    class="fill-current"
  />
</svg>
