<svg width="21" height="21" viewBox="0 0 21 21" fill="none" xmlns="http://www.w3.org/2000/svg">
<path opacity="0.4" d="M13.0083 12.7917V18.825L3.00834 18.8417V12.7917L3 11.5417V6.39166C3 5.83332 3.28335 5.31663 3.74168 5.0083L7.07501 2.78331C7.63335 2.40831 8.36665 2.40831 8.92499 2.78331L12.2583 5.0083C12.725 5.31663 13 5.83332 13 6.39166V11.5417L13.0083 12.7917Z" fill="#5C2D2D"/>
<path d="M18.8333 18.2083H17.775V15.7083C18.5666 15.45 19.1417 14.7083 19.1417 13.8333V12.1667C19.1417 11.075 18.25 10.1833 17.1583 10.1833C16.0666 10.1833 15.175 11.075 15.175 12.1667V13.8333C15.175 14.7 15.7416 15.4333 16.5166 15.7V18.2083H2.16666C1.82499 18.2083 1.54166 18.4917 1.54166 18.8333C1.54166 19.175 1.82499 19.4583 2.16666 19.4583H17.1083C17.125 19.4583 17.1333 19.4667 17.15 19.4667C17.1666 19.4667 17.175 19.4583 17.1917 19.4583H18.8333C19.175 19.4583 19.4583 19.175 19.4583 18.8333C19.4583 18.4917 19.175 18.2083 18.8333 18.2083Z" fill="#5C2D2D"/>
<path d="M13.0083 12.7917H3.00834L3 11.5417H13L13.0083 12.7917Z" fill="#5C2D2D"/>
<path d="M8 19.4583C7.65833 19.4583 7.375 19.175 7.375 18.8333V15.7083C7.375 15.3667 7.65833 15.0833 8 15.0833C8.34167 15.0833 8.625 15.3667 8.625 15.7083V18.8333C8.625 19.175 8.34167 19.4583 8 19.4583Z" fill="#5C2D2D"/>
<path d="M7.99999 9.45834C8.80541 9.45834 9.45832 8.80542 9.45832 8.00001C9.45832 7.19459 8.80541 6.54167 7.99999 6.54167C7.19457 6.54167 6.54166 7.19459 6.54166 8.00001C6.54166 8.80542 7.19457 9.45834 7.99999 9.45834Z" fill="#5C2D2D"/>
</svg>
