<svg width="21" height="21" viewBox="0 0 21 21" fill="none" xmlns="http://www.w3.org/2000/svg">
<path opacity="0.4" d="M17.6833 7.54166C16.8083 3.69166 13.45 1.95833 10.5 1.95833C10.5 1.95833 10.5 1.95833 10.4917 1.95833C7.54999 1.95833 4.18332 3.68333 3.30832 7.53333C2.33332 11.8333 4.96665 15.475 7.34999 17.7667C8.23332 18.6167 9.36665 19.0417 10.5 19.0417C11.6333 19.0417 12.7667 18.6167 13.6417 17.7667C16.025 15.475 18.6583 11.8417 17.6833 7.54166Z" fill="#5C2D2D"/>
<path d="M10.5 11.7167C11.9497 11.7167 13.125 10.5414 13.125 9.09166C13.125 7.64191 11.9497 6.46666 10.5 6.46666C9.05025 6.46666 7.875 7.64191 7.875 9.09166C7.875 10.5414 9.05025 11.7167 10.5 11.7167Z" fill="#5C2D2D"/>
</svg>
