   <svg
                width="24"
                height="24"
                viewBox="0 0 24 24"
                fill="none"
                xmlns="http://www.w3.org/2000/svg"
              >
                <path
                  opacity="0.4"
                  d="M11.97 22C17.4928 22 21.97 17.5228 21.97 12C21.97 6.47715 17.4928 2 11.97 2C6.44712 2 1.96997 6.47715 1.96997 12C1.96997 17.5228 6.44712 22 11.97 22Z"
                  class="fill-current"
                />
                <path
                  d="M14.9701 10.23L12.0701 8.56C11.3501 8.14 10.4801 8.14 9.76011 8.56C9.04011 8.98 8.61011 9.72 8.61011 10.56V13.91C8.61011 14.74 9.04011 15.49 9.76011 15.91C10.1201 16.12 10.5201 16.22 10.9101 16.22C11.3101 16.22 11.7001 16.12 12.0601 15.91L14.9601 14.24C15.6801 13.82 16.1101 13.08 16.1101 12.24C16.1301 11.4 15.7001 10.65 14.9701 10.23Z"
                  class="fill-current"
                />
              </svg>