<svg width="18" height="18" viewBox="0 0 18 18" fill="none" xmlns="http://www.w3.org/2000/svg">
<path opacity="0.4" d="M12.5775 14.235H5.4225C5.1075 14.235 4.8225 14.0325 4.7175 13.74L1.5975 5.0025C1.35 4.305 2.145 3.7125 2.7375 4.14L5.7375 6.285C6.135 6.57 6.705 6.3975 6.8775 5.94L8.295 2.16C8.535 1.5075 9.4575 1.5075 9.6975 2.16L11.115 5.94C11.2875 6.405 11.85 6.57 12.255 6.285L15.255 4.14C15.855 3.7125 16.6425 4.3125 16.395 5.0025L13.275 13.74C13.1775 14.0325 12.8925 14.235 12.5775 14.235Z" fill="white"/>
<path d="M12.75 16.5H5.25C4.9425 16.5 4.6875 16.245 4.6875 15.9375C4.6875 15.63 4.9425 15.375 5.25 15.375H12.75C13.0575 15.375 13.3125 15.63 13.3125 15.9375C13.3125 16.245 13.0575 16.5 12.75 16.5Z" fill="white"/>
<path d="M10.875 11.0625H7.125C6.8175 11.0625 6.5625 10.8075 6.5625 10.5C6.5625 10.1925 6.8175 9.9375 7.125 9.9375H10.875C11.1825 9.9375 11.4375 10.1925 11.4375 10.5C11.4375 10.8075 11.1825 11.0625 10.875 11.0625Z" fill="white"/>
</svg>
